<svg width="66" height="81" viewBox="0 0 66 81" fill="none" xmlns="http://www.w3.org/2000/svg">
<path d="M2 0.814507C0.9246 0.814479 -0.000799482 1.83692 5.18309e-07 2.67497V78.954C0.000100518 79.9281 0.952801 80.8144 2 80.8145H64C65.0472 80.8144 65.9999 79.9281 66 78.954V19.4192C66 18.9239 65.785 18.4302 65.4062 18.0819L47.4062 1.33776C47.0341 1.00289 46.5178 0.810758 46 0.814507H2ZM4 4.53544H44V19.4192C44.0001 20.3933 44.9528 21.2795 46 21.2796H62V77.0935H4V4.53544ZM48 7.15172L59.1875 17.5587H48V7.15172ZM13 32.4424C11.8954 32.4424 11 33.2753 11 34.3029C11 35.3304 11.8954 36.1633 13 36.1633H45C46.1046 36.1633 47 35.3304 47 34.3029C47 33.2753 46.1046 32.4424 45 32.4424H13ZM13 47.3261C11.8954 47.3261 11 48.159 11 49.1865C11 50.2141 11.8954 51.047 13 51.047H53C54.1046 51.047 55 50.2141 55 49.1865C55 48.159 54.1046 47.3261 53 47.3261H13ZM13 62.2098C11.8954 62.2098 11 63.0427 11 64.0703C11 65.0978 11.8954 65.9307 13 65.9307H53C54.1046 65.9307 55 65.0978 55 64.0703C55 63.0427 54.1046 62.2098 53 62.2098H13Z" fill="black"/>
</svg>
